<svg width="22" height="20" viewBox="0 0 22 20" fill="none" xmlns="http://www.w3.org/2000/svg">
<path d="M5.48284 19.7356C7.26462 7.59653 16.8181 0.627453 21.7235 0.544202C21.7735 0.543353 21.8119 0.586916 21.8116 0.636955C21.7793 6.44019 18.7361 6.72091 17.1354 6.86856C16.7655 6.90268 16.4727 6.92969 16.3118 7.0161C15.2277 7.27118 14.4784 8.01017 14.1595 8.38715C14.0158 8.55708 15.2584 8.75696 17.439 8.56609C17.5185 8.55912 17.5669 8.6517 17.516 8.7132C15.7105 10.8922 13.7 11.3319 12.4399 11.6075C12.03 11.6971 11.6995 11.7694 11.4812 11.8785C9.9835 13.3456 7.45246 16.7255 5.64924 19.7962C5.59898 19.8818 5.46843 19.8338 5.48284 19.7356Z" fill="#0F0F0F"/>
<path d="M4.62228 1.22873C4.99758 1.22873 5.30181 1.53297 5.30181 1.90827V5.07944H8.47298C8.84828 5.07944 9.15252 5.38367 9.15252 5.75897C9.15252 6.13427 8.84828 6.43851 8.47298 6.43851H5.30181V9.60967C5.30181 9.98497 4.99758 10.2892 4.62228 10.2892C4.24698 10.2892 3.94274 9.98497 3.94274 9.60967V6.43851H0.771577C0.396279 6.43851 0.092041 6.13427 0.092041 5.75897C0.092041 5.38367 0.396279 5.07944 0.771577 5.07944H3.94274V1.90827C3.94274 1.53297 4.24698 1.22873 4.62228 1.22873Z" fill="#0F0F0F"/>
</svg>
