<svg width="21" height="16" viewBox="0 0 21 16" fill="none" xmlns="http://www.w3.org/2000/svg">
<path d="M15.923 6.14159L8.89744 6.14159C8.56718 6.14159 8.25046 6.00761 8.01693 5.76911C7.78341 5.53062 7.65221 5.20716 7.65221 4.86988C7.65221 4.5326 7.78341 4.20914 8.01693 3.97065C8.25046 3.73216 8.56718 3.59818 8.89744 3.59818L15.923 3.59818L14.5259 2.17259C14.2922 1.9338 14.161 1.61 14.1611 1.27241C14.1612 0.934829 14.2927 0.611118 14.5265 0.372495C14.7603 0.133871 15.0774 -0.000119389 15.4079 -2.0833e-07C15.7385 0.000119131 16.0555 0.134338 16.2891 0.373131L19.8094 3.97079C20.0428 4.20927 20.1739 4.53267 20.1739 4.86988C20.1739 5.20709 20.0428 5.5305 19.8094 5.76898L16.2879 9.36664C16.1721 9.48479 16.0347 9.5785 15.8834 9.64241C15.7322 9.70632 15.5701 9.73919 15.4064 9.73913C15.2427 9.73907 15.0807 9.70609 14.9295 9.64207C14.7783 9.57804 14.6409 9.48424 14.5252 9.366C14.4095 9.24776 14.3178 9.10741 14.2552 8.95295C14.1926 8.7985 14.1604 8.63297 14.1605 8.46582C14.1606 8.29866 14.1929 8.13316 14.2555 7.97875C14.3182 7.82434 14.4101 7.68405 14.5259 7.5659L15.923 6.14159Z" fill="white"/>
<path d="M15.923 6.14159L8.89744 6.14159C8.56718 6.14159 8.25046 6.00761 8.01693 5.76911C7.78341 5.53062 7.65221 5.20716 7.65221 4.86988C7.65221 4.5326 7.78341 4.20914 8.01693 3.97065C8.25046 3.73216 8.56718 3.59818 8.89744 3.59818L15.923 3.59818L14.5259 2.17259C14.2922 1.9338 14.161 1.61 14.1611 1.27241C14.1612 0.934829 14.2927 0.611118 14.5265 0.372495C14.7603 0.133871 15.0774 -0.000119389 15.4079 -2.0833e-07C15.7385 0.000119131 16.0555 0.134338 16.2891 0.373131L19.8094 3.97079C20.0428 4.20927 20.1739 4.53267 20.1739 4.86988C20.1739 5.20709 20.0428 5.5305 19.8094 5.76898L16.2879 9.36664C16.1721 9.48479 16.0347 9.5785 15.8834 9.64241C15.7322 9.70632 15.5701 9.73919 15.4064 9.73913C15.2427 9.73907 15.0807 9.70609 14.9295 9.64207C14.7783 9.57804 14.6409 9.48424 14.5252 9.366C14.4095 9.24776 14.3178 9.10741 14.2552 8.95295C14.1926 8.7985 14.1604 8.63297 14.1605 8.46582C14.1606 8.29866 14.1929 8.13316 14.2555 7.97875C14.3182 7.82434 14.4101 7.68405 14.5259 7.5659L15.923 6.14159Z" stroke="white"/>
<path d="M4.25096 9.85841L11.2765 9.85841C11.6068 9.85841 11.9235 9.9924 12.157 10.2309C12.3906 10.4694 12.5218 10.7928 12.5218 11.1301C12.5218 11.4674 12.3906 11.7909 12.157 12.0294C11.9235 12.2678 11.6068 12.4018 11.2765 12.4018L4.25096 12.4018L5.6481 13.8274C5.88176 14.0662 6.01296 14.39 6.01284 14.7276C6.01272 15.0652 5.8813 15.3889 5.64748 15.6275C5.41366 15.8661 5.09659 16.0001 4.76604 16C4.43548 15.9999 4.11851 15.8657 3.88486 15.6269L0.364601 12.0292C0.131157 11.7907 1.58532e-05 11.4673 1.58974e-05 11.1301C1.59416e-05 10.7929 0.131158 10.4695 0.364602 10.231L3.8861 6.63337C4.00188 6.51521 4.13931 6.4215 4.29055 6.35759C4.44179 6.29368 4.60387 6.26081 4.76754 6.26087C4.93122 6.26093 5.09328 6.29391 5.24447 6.35793C5.39566 6.42196 5.53303 6.51576 5.64872 6.634C5.76442 6.75224 5.85618 6.89259 5.91876 7.04705C5.98134 7.2015 6.01352 7.36703 6.01346 7.53418C6.0134 7.70134 5.98111 7.86684 5.91842 8.02125C5.85573 8.17566 5.76388 8.31595 5.6481 8.4341L4.25096 9.85841Z" fill="white"/>
<path d="M4.25096 9.85841L11.2765 9.85841C11.6068 9.85841 11.9235 9.9924 12.157 10.2309C12.3906 10.4694 12.5218 10.7928 12.5218 11.1301C12.5218 11.4674 12.3906 11.7909 12.157 12.0294C11.9235 12.2678 11.6068 12.4018 11.2765 12.4018L4.25096 12.4018L5.6481 13.8274C5.88176 14.0662 6.01296 14.39 6.01284 14.7276C6.01272 15.0652 5.8813 15.3889 5.64748 15.6275C5.41366 15.8661 5.09659 16.0001 4.76604 16C4.43548 15.9999 4.11851 15.8657 3.88486 15.6269L0.364601 12.0292C0.131157 11.7907 1.58532e-05 11.4673 1.58974e-05 11.1301C1.59416e-05 10.7929 0.131158 10.4695 0.364602 10.231L3.8861 6.63337C4.00188 6.51521 4.13931 6.4215 4.29055 6.35759C4.44179 6.29368 4.60387 6.26081 4.76754 6.26087C4.93122 6.26093 5.09328 6.29391 5.24447 6.35793C5.39566 6.42196 5.53303 6.51576 5.64872 6.634C5.76442 6.75224 5.85618 6.89259 5.91876 7.04705C5.98134 7.2015 6.01352 7.36703 6.01346 7.53418C6.0134 7.70134 5.98111 7.86684 5.91842 8.02125C5.85573 8.17566 5.76388 8.31595 5.6481 8.4341L4.25096 9.85841Z" stroke="white"/>
</svg>
