<svg width="20" height="26" viewBox="0 0 20 26" fill="none" xmlns="http://www.w3.org/2000/svg">
<path d="M7.647 11.1038L9.74159 9.16196C10.3143 8.62996 10.7169 7.93691 10.8976 7.17176C11.0783 6.40662 11.0289 5.60428 10.7557 4.86774L9.86251 2.45422C9.5288 1.55318 8.86815 0.814777 8.01516 0.389446C7.16217 -0.0358844 6.18101 -0.116143 5.27157 0.165021C1.92491 1.20108 -0.647502 4.34873 0.144309 8.08643C0.665031 10.5453 1.66162 13.6318 3.54948 16.9156C5.44125 20.2073 7.60215 22.6386 9.4549 24.3476C12.2516 26.923 16.2496 26.2796 18.8221 23.8523C19.5116 23.2017 19.93 22.3095 19.992 21.3576C20.054 20.4057 19.7548 19.4657 19.1556 18.7292L17.5173 16.7163C17.0232 16.1076 16.3604 15.6624 15.6142 15.438C14.868 15.2137 14.0725 15.2203 13.3301 15.4572L10.6231 16.3196C9.92404 15.5896 9.31143 14.7797 8.79766 13.9061C8.30177 13.0227 7.91531 12.0809 7.647 11.1019" fill="#09491A"/>
</svg>
