<svg width="14" height="12" viewBox="0 0 14 12" fill="none" xmlns="http://www.w3.org/2000/svg">
<path d="M10.1313 1.6666C9.31667 1.6266 8.34534 2.0066 7.538 3.1066L7.00134 3.83327L6.464 3.1066C5.656 2.0066 4.684 1.6266 3.86934 1.6666C3.04067 1.71327 2.30334 2.1866 1.92934 2.93994C1.56134 3.6866 1.50734 4.79327 2.24867 6.15327C2.96467 7.4666 4.42 8.99994 7.00134 10.5599C9.58134 8.99994 11.036 7.4666 11.752 6.15327C12.4927 4.79327 12.4387 3.6866 12.07 2.93994C11.696 2.1866 10.9593 1.71327 10.1313 1.6666ZM12.9227 6.79327C12.022 8.4466 10.2553 10.2066 7.33667 11.9066L7.00134 12.1066L6.66534 11.9066C3.746 10.2066 1.97934 8.4466 1.07734 6.79327C0.170669 5.1266 0.137336 3.55327 0.734669 2.3466C1.326 1.15327 2.49934 0.406603 3.802 0.339937C4.90267 0.279937 6.04734 0.71327 7.00067 1.67994C7.95334 0.71327 9.098 0.279937 10.198 0.339937C11.5007 0.406603 12.674 1.15327 13.2653 2.3466C13.8627 3.55327 13.8293 5.1266 12.9227 6.79327Z" fill="#536471"/>
</svg>
