<svg width="27" height="26" viewBox="0 0 27 26" fill="none" xmlns="http://www.w3.org/2000/svg">
<path d="M4.71429 0C5.16894 0 5.60498 0.144866 5.92647 0.402728C6.24796 0.660591 6.42857 1.01033 6.42857 1.375V20.625C6.42857 20.9897 6.24796 21.3394 5.92647 21.5973C5.60498 21.8551 5.16894 22 4.71429 22C4.25963 22 3.82359 21.8551 3.5021 21.5973C3.18061 21.3394 3 20.9897 3 20.625V1.375C3 1.01033 3.18061 0.660591 3.5021 0.402728C3.82359 0.144866 4.25963 0 4.71429 0V0ZM25.2857 5.5C25.7404 5.5 26.1764 5.64487 26.4979 5.90273C26.8194 6.16059 27 6.51033 27 6.875V20.625C27 20.9897 26.8194 21.3394 26.4979 21.5973C26.1764 21.8551 25.7404 22 25.2857 22C24.8311 22 24.395 21.8551 24.0735 21.5973C23.752 21.3394 23.5714 20.9897 23.5714 20.625V6.875C23.5714 6.51033 23.752 6.16059 24.0735 5.90273C24.395 5.64487 24.8311 5.5 25.2857 5.5ZM15 11C15.4547 11 15.8907 11.1449 16.2122 11.4027C16.5337 11.6606 16.7143 12.0103 16.7143 12.375V20.625C16.7143 20.9897 16.5337 21.3394 16.2122 21.5973C15.8907 21.8551 15.4547 22 15 22C14.5453 22 14.1093 21.8551 13.7878 21.5973C13.4663 21.3394 13.2857 20.9897 13.2857 20.625V12.375C13.2857 12.0103 13.4663 11.6606 13.7878 11.4027C14.1093 11.1449 14.5453 11 15 11Z" fill="#30A146"/>
</svg>
