<svg width="20" height="20" viewBox="0 0 20 20" fill="none" xmlns="http://www.w3.org/2000/svg">
<path fill-rule="evenodd" clip-rule="evenodd" d="M19.7249 9.9999C19.7249 15.3018 15.4268 19.5999 10.1249 19.5999C4.82297 19.5999 0.524902 15.3018 0.524902 9.9999C0.524902 4.69797 4.82297 0.399902 10.1249 0.399902C15.4268 0.399902 19.7249 4.69797 19.7249 9.9999ZM12.5249 6.3999C12.5249 7.72539 11.4504 8.7999 10.1249 8.7999C8.79942 8.7999 7.7249 7.72539 7.7249 6.3999C7.7249 5.07442 8.79942 3.9999 10.1249 3.9999C11.4504 3.9999 12.5249 5.07442 12.5249 6.3999ZM10.1248 11.1999C7.70377 11.1999 5.61764 12.6338 4.66938 14.6988C5.98974 16.2303 7.94408 17.1999 10.1249 17.1999C12.3056 17.1999 14.2599 16.2304 15.5803 14.6989C14.6321 12.6339 12.5459 11.1999 10.1248 11.1999Z" fill="#30A146"/>
</svg>
