<svg width="22" height="18" viewBox="0 0 22 18" fill="none" xmlns="http://www.w3.org/2000/svg">
<path d="M9.8002 4.2001C9.8002 6.18832 8.18842 7.8001 6.2002 7.8001C4.21197 7.8001 2.6002 6.18832 2.6002 4.2001C2.6002 2.21187 4.21197 0.600098 6.2002 0.600098C8.18842 0.600098 9.8002 2.21187 9.8002 4.2001Z" fill="#30A146"/>
<path d="M19.4002 4.2001C19.4002 6.18832 17.7884 7.8001 15.8002 7.8001C13.812 7.8001 12.2002 6.18832 12.2002 4.2001C12.2002 2.21187 13.812 0.600098 15.8002 0.600098C17.7884 0.600098 19.4002 2.21187 19.4002 4.2001Z" fill="#30A146"/>
<path d="M14.5152 17.4001C14.5712 17.0082 14.6002 16.6075 14.6002 16.2001C14.6002 14.2379 13.9274 12.4328 12.7999 11.003C13.6825 10.4924 14.7072 10.2001 15.8002 10.2001C19.1139 10.2001 21.8002 12.8864 21.8002 16.2001V17.4001H14.5152Z" fill="#30A146"/>
<path d="M6.2002 10.2001C9.5139 10.2001 12.2002 12.8864 12.2002 16.2001V17.4001H0.200195V16.2001C0.200195 12.8864 2.88649 10.2001 6.2002 10.2001Z" fill="#30A146"/>
</svg>
