<svg width="24" height="22" viewBox="0 0 24 22" fill="none" xmlns="http://www.w3.org/2000/svg">
<path d="M1.71429 0C2.16894 0 2.60498 0.144866 2.92647 0.402728C3.24796 0.660591 3.42857 1.01033 3.42857 1.375V20.625C3.42857 20.9897 3.24796 21.3394 2.92647 21.5973C2.60498 21.8551 2.16894 22 1.71429 22C1.25963 22 0.823594 21.8551 0.502103 21.5973C0.180612 21.3394 0 20.9897 0 20.625V1.375C0 1.01033 0.180612 0.660591 0.502103 0.402728C0.823594 0.144866 1.25963 0 1.71429 0V0ZM22.2857 5.5C22.7404 5.5 23.1764 5.64487 23.4979 5.90273C23.8194 6.16059 24 6.51033 24 6.875V20.625C24 20.9897 23.8194 21.3394 23.4979 21.5973C23.1764 21.8551 22.7404 22 22.2857 22C21.8311 22 21.395 21.8551 21.0735 21.5973C20.752 21.3394 20.5714 20.9897 20.5714 20.625V6.875C20.5714 6.51033 20.752 6.16059 21.0735 5.90273C21.395 5.64487 21.8311 5.5 22.2857 5.5V5.5ZM12 11C12.4547 11 12.8907 11.1449 13.2122 11.4027C13.5337 11.6606 13.7143 12.0103 13.7143 12.375V20.625C13.7143 20.9897 13.5337 21.3394 13.2122 21.5973C12.8907 21.8551 12.4547 22 12 22C11.5453 22 11.1093 21.8551 10.7878 21.5973C10.4663 21.3394 10.2857 20.9897 10.2857 20.625V12.375C10.2857 12.0103 10.4663 11.6606 10.7878 11.4027C11.1093 11.1449 11.5453 11 12 11Z" fill="#EAEAEA"/>
</svg>
