<svg width="24" height="19" viewBox="0 0 24 19" fill="none" xmlns="http://www.w3.org/2000/svg">
<path d="M4 19C2.89244 19 1.94889 18.6033 1.16933 17.8098C0.389778 17.0163 0 16.0559 0 14.9286V4.07143C0 2.9441 0.389778 1.98369 1.16933 1.19021C1.94889 0.396738 2.89244 0 4 0H20C21.1076 0 22.0511 0.396738 22.8307 1.19021C23.6102 1.98369 24 2.9441 24 4.07143V14.9286C24 16.0559 23.6102 17.0163 22.8307 17.8098C22.0511 18.6033 21.1076 19 20 19H4ZM4 4.75H20C20.5227 4.75 21.0107 4.84138 21.464 5.02414C21.9173 5.2069 22.3182 5.47471 22.6667 5.82757V4.07143C22.6667 3.325 22.4058 2.68624 21.884 2.15514C21.3622 1.62405 20.7342 1.35805 20 1.35714H4C3.26667 1.35714 2.63911 1.62314 2.11733 2.15514C1.59556 2.68714 1.33422 3.3259 1.33333 4.07143V5.82757C1.68178 5.47471 2.08267 5.2069 2.536 5.02414C2.98933 4.84138 3.47733 4.75 4 4.75ZM1.38 8.455L16.4947 12.198C16.6609 12.2432 16.8311 12.2478 17.0053 12.2116C17.1796 12.1754 17.3298 12.098 17.456 11.9795L22.4227 7.7045C22.2298 7.22588 21.9142 6.84 21.476 6.54686C21.0396 6.25371 20.5476 6.10714 20 6.10714H4C3.32 6.10714 2.73333 6.32926 2.24 6.7735C1.74667 7.21864 1.46 7.7796 1.38 8.45636" fill="#30A146"/>
</svg>
