<svg width="20" height="20" viewBox="0 0 20 20" fill="none" xmlns="http://www.w3.org/2000/svg">
<path d="M14.7444 9.20092C15.2337 13.5015 17.1579 14.8016 17.1579 14.8016H2C2 14.8016 4.52632 13.095 4.52632 7.12065C4.52632 5.76288 5.05853 4.46031 6.00589 3.50019C6.95411 2.54007 8.24 2 9.57895 2C9.86274 2 10.1448 2.024 10.4211 2.07201M11.0358 17.2019C10.8879 17.4446 10.6755 17.6461 10.4198 17.7862C10.1641 17.9263 9.8741 18 9.57895 18C9.28379 18 8.99383 17.9263 8.73813 17.7862C8.48243 17.6461 8.26999 17.4446 8.12211 17.2019M15.4737 6.80061C16.1437 6.80061 16.7863 6.54772 17.2601 6.09758C17.7338 5.64743 18 5.03691 18 4.40031C18 3.76371 17.7338 3.15318 17.2601 2.70303C16.7863 2.25289 16.1437 2 15.4737 2C14.8037 2 14.1611 2.25289 13.6873 2.70303C13.2135 3.15318 12.9474 3.76371 12.9474 4.40031C12.9474 5.03691 13.2135 5.64743 13.6873 6.09758C14.1611 6.54772 14.8037 6.80061 15.4737 6.80061Z" stroke="white" stroke-width="2.5" stroke-linecap="round" stroke-linejoin="round"/>
</svg>
