<svg width="76" height="22" viewBox="0 0 76 22" fill="none" xmlns="http://www.w3.org/2000/svg">
<rect width="76" height="22" fill="#ABABAB"/>
<rect x="0.5" y="0.5" width="75" height="21" stroke="#3C3C3C" stroke-opacity="0.27"/>
<path d="M22.8026 15.07C22.1399 15.07 21.5659 14.986 21.0806 14.818C20.6046 14.6407 20.2359 14.3607 19.9746 13.978C19.7132 13.586 19.5639 13.0633 19.5266 12.41L19.2746 6.768H21.2486L21.4866 11.724C21.5052 12.1067 21.5659 12.4007 21.6686 12.606C21.7806 12.802 21.9392 12.9373 22.1446 13.012C22.3499 13.0773 22.6159 13.11 22.9426 13.11C23.2972 13.11 23.5492 13.2033 23.6986 13.39C23.8479 13.5673 23.9226 13.7913 23.9226 14.062C23.9226 14.3513 23.8246 14.594 23.6286 14.79C23.4419 14.9767 23.1666 15.07 22.8026 15.07ZM20.2406 13.768C19.6152 13.908 19.0132 13.9733 18.4346 13.964C17.8559 13.9453 17.3379 13.8427 16.8806 13.656C16.4232 13.46 16.0592 13.18 15.7886 12.816C15.5272 12.452 15.3966 11.99 15.3966 11.43C15.3966 10.9353 15.5039 10.4873 15.7186 10.086C15.9426 9.67533 16.2506 9.316 16.6426 9.008C17.0439 8.7 17.5106 8.43867 18.0426 8.224C18.5746 8.00933 19.1532 7.846 19.7786 7.734L19.9746 9.722C19.5732 9.74067 19.2092 9.79667 18.8826 9.89C18.5652 9.974 18.2899 10.086 18.0566 10.226C17.8326 10.366 17.6599 10.5247 17.5386 10.702C17.4172 10.87 17.3566 11.052 17.3566 11.248C17.3566 11.4067 17.4126 11.5373 17.5246 11.64C17.6366 11.7427 17.7859 11.8267 17.9726 11.892C18.1592 11.948 18.3739 11.9807 18.6166 11.99C18.8592 11.9993 19.1066 11.9853 19.3586 11.948C19.6199 11.9107 19.8766 11.85 20.1286 11.766L20.2406 13.768ZM20.2826 5.326C20.0119 5.326 19.7786 5.23267 19.5826 5.046C19.3959 4.85 19.3026 4.62133 19.3026 4.36C19.3026 4.08933 19.3959 3.856 19.5826 3.66C19.7786 3.464 20.0119 3.366 20.2826 3.366C20.5439 3.366 20.7679 3.464 20.9546 3.66C21.1412 3.856 21.2346 4.08933 21.2346 4.36C21.2346 4.62133 21.1412 4.85 20.9546 5.046C20.7679 5.23267 20.5439 5.326 20.2826 5.326ZM17.8606 5.312C17.5899 5.312 17.3566 5.21867 17.1606 5.032C16.9739 4.836 16.8806 4.60733 16.8806 4.346C16.8806 4.07533 16.9739 3.842 17.1606 3.646C17.3566 3.45 17.5899 3.352 17.8606 3.352C18.1219 3.352 18.3459 3.45 18.5326 3.646C18.7192 3.842 18.8126 4.07533 18.8126 4.346C18.8126 4.60733 18.7192 4.836 18.5326 5.032C18.3459 5.21867 18.1219 5.312 17.8606 5.312ZM22.7979 15.07L22.9379 13.11C23.2739 13.11 23.5632 13.0773 23.8059 13.012C24.0485 12.9467 24.2539 12.816 24.4219 12.62C24.5899 12.4147 24.7299 12.116 24.8419 11.724C24.9632 11.332 25.0705 10.8093 25.1639 10.156L26.9979 10.464C26.9792 10.604 26.9512 10.7673 26.9139 10.954C26.8859 11.1407 26.8579 11.332 26.8299 11.528C26.8112 11.7147 26.8019 11.892 26.8019 12.06C26.8019 12.228 26.8345 12.3773 26.8999 12.508C26.9652 12.6387 27.0679 12.7507 27.2079 12.844C27.3572 12.928 27.5485 12.9933 27.7819 13.04C28.0245 13.0867 28.3185 13.11 28.6639 13.11C29.0185 13.11 29.2705 13.2033 29.4199 13.39C29.5692 13.5673 29.6439 13.7913 29.6439 14.062C29.6439 14.3513 29.5459 14.594 29.3499 14.79C29.1632 14.9767 28.8879 15.07 28.5239 15.07C28.1039 15.07 27.7212 15.0373 27.3759 14.972C27.0399 14.9067 26.7459 14.7993 26.4939 14.65C26.2512 14.4913 26.0505 14.286 25.8919 14.034C25.7425 13.7727 25.6492 13.4553 25.6119 13.082H26.2839C26.1159 13.53 25.9012 13.8893 25.6399 14.16C25.3879 14.4213 25.1032 14.6173 24.7859 14.748C24.4685 14.8787 24.1372 14.9627 23.7919 15C23.4559 15.0467 23.1245 15.07 22.7979 15.07ZM26.7039 18.318C26.4332 18.318 26.1999 18.22 26.0039 18.024C25.8172 17.8373 25.7239 17.6133 25.7239 17.352C25.7239 17.0813 25.8172 16.848 26.0039 16.652C26.1999 16.456 26.4332 16.358 26.7039 16.358C26.9652 16.358 27.1892 16.456 27.3759 16.652C27.5625 16.848 27.6559 17.0813 27.6559 17.352C27.6559 17.6133 27.5625 17.8373 27.3759 18.024C27.1892 18.22 26.9652 18.318 26.7039 18.318ZM24.2819 18.318C24.0112 18.318 23.7779 18.22 23.5819 18.024C23.3952 17.8373 23.3019 17.6133 23.3019 17.352C23.3019 17.0813 23.3952 16.848 23.5819 16.652C23.7779 16.456 24.0112 16.358 24.2819 16.358C24.5432 16.358 24.7672 16.456 24.9539 16.652C25.1405 16.848 25.2339 17.0813 25.2339 17.352C25.2339 17.6133 25.1405 17.8373 24.9539 18.024C24.7672 18.22 24.5432 18.318 24.2819 18.318ZM28.5264 15.07L28.6664 13.11C29.077 13.11 29.399 13.082 29.6324 13.026C29.875 12.97 30.0477 12.8673 30.1504 12.718C30.253 12.5593 30.3044 12.3353 30.3044 12.046C30.3044 11.7847 30.267 11.472 30.1924 11.108C30.127 10.744 30.0384 10.366 29.9264 9.974C29.8144 9.582 29.7024 9.22267 29.5904 8.896L31.5224 8.364C31.6344 8.68133 31.7464 9.05 31.8584 9.47C31.9704 9.89 32.0637 10.324 32.1384 10.772C32.2224 11.2107 32.2644 11.6353 32.2644 12.046C32.2644 12.5593 32.199 12.9933 32.0684 13.348C31.9377 13.6933 31.7557 13.9827 31.5224 14.216C31.2984 14.44 31.0277 14.6173 30.7104 14.748C30.4024 14.8693 30.0617 14.9533 29.6884 15C29.315 15.0467 28.9277 15.07 28.5264 15.07ZM30.2484 18.29C29.9777 18.29 29.7444 18.1967 29.5484 18.01C29.3617 17.8233 29.2684 17.5947 29.2684 17.324C29.2684 17.0533 29.3617 16.8153 29.5484 16.61C29.7444 16.414 29.9777 16.316 30.2484 16.316C30.519 16.316 30.7477 16.414 30.9344 16.61C31.1304 16.8153 31.2284 17.0533 31.2284 17.324C31.2284 17.5947 31.1304 17.8233 30.9344 18.01C30.7477 18.1967 30.519 18.29 30.2484 18.29ZM33.1937 18.234L32.4797 16.498C32.9744 16.33 33.4271 16.134 33.8377 15.91C34.2577 15.686 34.6217 15.4387 34.9297 15.168C35.2377 14.8973 35.4757 14.6033 35.6437 14.286C35.8117 13.9593 35.8957 13.6093 35.8957 13.236C35.8957 12.844 35.8071 12.4147 35.6297 11.948C35.4524 11.4813 35.2377 11.0053 34.9857 10.52L36.8197 9.638C36.9877 9.92733 37.1324 10.24 37.2537 10.576C37.3844 10.9027 37.4917 11.1967 37.5757 11.458C37.6597 11.7193 37.7157 11.8967 37.7437 11.99C37.8744 12.438 38.0517 12.7367 38.2757 12.886C38.5091 13.0353 38.8824 13.11 39.3957 13.11C39.7504 13.11 40.0024 13.2033 40.1517 13.39C40.3104 13.5673 40.3897 13.7913 40.3897 14.062C40.3897 14.3513 40.2917 14.594 40.0957 14.79C39.8997 14.9767 39.6197 15.07 39.2557 15.07C38.8731 15.07 38.5371 15.014 38.2477 14.902C37.9584 14.79 37.7251 14.6267 37.5477 14.412C37.3797 14.1973 37.2724 13.9453 37.2257 13.656L37.7437 13.95C37.6877 14.4447 37.5244 14.9113 37.2537 15.35C36.9924 15.798 36.6517 16.2087 36.2317 16.582C35.8117 16.9553 35.3404 17.282 34.8177 17.562C34.2951 17.842 33.7537 18.066 33.1937 18.234ZM39.2165 15.07L39.3565 13.11C40.0098 13.11 40.5978 13.068 41.1205 12.984C41.6431 12.8907 42.1005 12.7693 42.4925 12.62C42.8938 12.4707 43.2251 12.298 43.4865 12.102C43.7571 11.906 43.9578 11.7007 44.0885 11.486C44.2285 11.262 44.2985 11.0427 44.2985 10.828C44.2985 10.7067 44.2658 10.5947 44.2005 10.492C44.1445 10.38 44.0465 10.2913 43.9065 10.226C43.7665 10.1513 43.5751 10.114 43.3325 10.114C43.2111 10.114 43.0665 10.128 42.8985 10.156C42.7305 10.184 42.5625 10.226 42.3945 10.282C42.2265 10.3287 42.0678 10.394 41.9185 10.478C42.1145 10.6273 42.3291 10.8187 42.5625 11.052C42.7958 11.276 43.0291 11.514 43.2625 11.766C43.4958 12.0087 43.6965 12.2467 43.8645 12.48C44.0605 12.564 44.2751 12.648 44.5085 12.732C44.7511 12.8067 45.0125 12.872 45.2925 12.928C45.5725 12.984 45.8665 13.0307 46.1745 13.068C46.4825 13.096 46.7998 13.11 47.1265 13.11C47.4811 13.11 47.7331 13.2033 47.8825 13.39C48.0411 13.5673 48.1205 13.7913 48.1205 14.062C48.1205 14.3513 48.0225 14.594 47.8265 14.79C47.6305 14.9767 47.3505 15.07 46.9865 15.07C46.2398 15.07 45.5771 15.014 44.9985 14.902C44.4198 14.7807 43.9018 14.608 43.4445 14.384C42.9965 14.1507 42.5765 13.8707 42.1845 13.544C42.0725 13.348 41.9138 13.138 41.7085 12.914C41.5125 12.6807 41.3025 12.4567 41.0785 12.242C40.8638 12.0273 40.6678 11.85 40.4905 11.71C40.4438 11.6727 40.3878 11.5747 40.3225 11.416C40.2665 11.248 40.2151 11.0753 40.1685 10.898C40.1218 10.7113 40.0985 10.5807 40.0985 10.506C40.0985 10.2913 40.1965 10.0627 40.3925 9.82C40.5978 9.57733 40.8685 9.35333 41.2045 9.148C41.5498 8.93333 41.9278 8.76067 42.3385 8.63C42.7585 8.49 43.1831 8.42 43.6125 8.42C44.1911 8.42 44.6718 8.50867 45.0545 8.686C45.4465 8.854 45.7405 9.092 45.9365 9.4C46.1325 9.69867 46.2305 10.0487 46.2305 10.45C46.2305 10.898 46.1325 11.346 45.9365 11.794C45.7405 12.2327 45.4511 12.648 45.0685 13.04C44.6951 13.432 44.2238 13.782 43.6545 14.09C43.0945 14.3887 42.4411 14.6267 41.6945 14.804C40.9571 14.9813 40.1311 15.07 39.2165 15.07ZM46.9971 15.07L47.1371 13.11C47.5664 13.11 47.8744 13.068 48.0611 12.984C48.2477 12.8907 48.3597 12.7227 48.3971 12.48C48.4344 12.228 48.4437 11.864 48.4251 11.388L48.1731 4.752H50.1471L50.4271 11.528C50.4457 12.0693 50.4224 12.5593 50.3571 12.998C50.3011 13.4273 50.1564 13.796 49.9231 14.104C49.6991 14.412 49.3491 14.65 48.8731 14.818C48.4064 14.986 47.7811 15.07 46.9971 15.07ZM52.2733 15L51.9793 4.752H53.9393L54.2333 15H52.2733Z" fill="#FCFCFC"/>
</svg>
