<svg width="16" height="12" viewBox="0 0 16 12" fill="none" xmlns="http://www.w3.org/2000/svg">
<path d="M3.00002 0.58667L5.95468 3.34667L5.04535 4.32L3.66668 3.03334V8.66667C3.66668 9.4 4.26402 10 5.00002 10H8.66668V11.3333H5.00002C3.52735 11.3333 2.33335 10.14 2.33335 8.66667V3.03334L0.954683 4.32L0.0453491 3.34667L3.00002 0.58667ZM11 2H7.33335V0.66667H11C12.4727 0.66667 13.6667 1.86 13.6667 3.33334V8.96667L15.0453 7.68L15.9547 8.65334L13 11.4133L10.0453 8.65334L10.9547 7.68L12.3333 8.96667V3.33334C12.3333 2.6 11.736 2 11 2Z" fill="#536471"/>
</svg>
