<svg width="14" height="14" viewBox="0 0 14 14" fill="none" xmlns="http://www.w3.org/2000/svg">
<path d="M0.167358 5.66659C0.167358 2.71992 2.55669 0.333252 5.50402 0.333252H8.41469C11.408 0.333252 13.834 2.75992 13.834 5.75325C13.834 7.72659 12.7627 9.53992 11.0367 10.4933L5.66736 13.4666V11.0066H5.62269C2.62936 11.0733 0.167358 8.66659 0.167358 5.66659ZM5.50402 1.66659C3.29269 1.66659 1.50069 3.45992 1.50069 5.66659C1.50069 7.91325 3.34736 9.71992 5.59269 9.67325L5.82669 9.66659H7.00069V11.1999L10.392 9.32659C11.6927 8.60659 12.5007 7.23992 12.5007 5.75325C12.5007 3.49325 10.6714 1.66659 8.41469 1.66659H5.50402Z" fill="#536471"/>
</svg>
