<svg width="30" height="30" viewBox="0 0 30 30" fill="none" xmlns="http://www.w3.org/2000/svg">
<path d="M17.7458 17.0771L19.7875 13.5479C19.9187 13.3292 19.8604 13.0521 19.6708 12.8917L17.5125 11.2C17.5562 10.8792 17.5854 10.5438 17.5854 10.2083C17.5854 9.87292 17.5562 9.5375 17.5125 9.20208L19.6708 7.51042C19.8604 7.35 19.9187 7.07292 19.7875 6.85417L17.7458 3.325C17.6145 3.10625 17.352 3.01875 17.1187 3.10625L14.5812 4.12708C14.0562 3.71875 13.4875 3.38333 12.8604 3.12083L12.4812 0.422917C12.4567 0.30497 12.3929 0.198852 12.3001 0.121998C12.2074 0.045143 12.0912 0.00212138 11.9708 0H7.88745C7.63954 0 7.42079 0.189583 7.37704 0.4375L6.99787 3.13542C6.38537 3.39792 5.80204 3.73333 5.27704 4.14167L2.73954 3.12083C2.5062 3.03333 2.2437 3.12083 2.11245 3.33958L0.0707853 6.86875C-0.0604647 7.0875 -0.00213115 7.36458 0.187452 7.525L2.34579 9.21667C2.30204 9.5375 2.27287 9.87292 2.27287 10.2083C2.27287 10.5438 2.30204 10.8792 2.34579 11.2146L0.187452 12.9063C-0.00213115 13.0667 -0.0604647 13.3438 0.0707853 13.5625L2.11245 17.0917C2.2437 17.3104 2.5062 17.3979 2.73954 17.3104L5.27704 16.2896C5.80204 16.6979 6.37079 17.0333 6.99787 17.2958L7.37704 19.9938C7.42079 20.2271 7.63954 20.4167 7.88745 20.4167H11.9708C12.2187 20.4167 12.4375 20.2271 12.4812 19.9792L12.8604 17.2813C13.4729 17.0188 14.0562 16.6833 14.5812 16.275L17.1187 17.2958C17.352 17.3833 17.6145 17.2958 17.7458 17.0771ZM9.92912 13.125C8.32495 13.125 7.01245 11.8125 7.01245 10.2083C7.01245 8.60417 8.32495 7.29167 9.92912 7.29167C11.5333 7.29167 12.8458 8.60417 12.8458 10.2083C12.8458 11.8125 11.5333 13.125 9.92912 13.125ZM29.0479 24.3104L27.6479 23.2313C27.677 23.0271 27.7062 22.8083 27.7062 22.5896C27.7062 22.3708 27.6916 22.1521 27.6479 21.9479L29.0333 20.8687C29.15 20.7667 29.1937 20.5917 29.1062 20.4458L27.7937 18.1854C27.7208 18.0396 27.5458 17.9958 27.3854 18.0396L25.7666 18.6958C25.4312 18.4333 25.0666 18.2146 24.6583 18.0542L24.4104 16.3333C24.4046 16.2554 24.3701 16.1824 24.3135 16.1285C24.2569 16.0746 24.1823 16.0436 24.1041 16.0417H21.4937C21.3333 16.0417 21.1875 16.1583 21.1729 16.3188L20.925 18.0396C20.5312 18.2146 20.152 18.4188 19.8166 18.6813L18.1979 18.025C18.1236 17.997 18.0417 17.9964 17.967 18.0231C17.8922 18.0498 17.8293 18.1021 17.7895 18.1708L16.477 20.4313C16.4041 20.5771 16.4187 20.7521 16.55 20.8542L17.9354 21.9333C17.8752 22.359 17.8752 22.791 17.9354 23.2167L16.55 24.2958C16.4333 24.3979 16.3895 24.5729 16.477 24.7188L17.7895 26.9792C17.8625 27.125 18.0375 27.1688 18.1979 27.125L19.8166 26.4688C20.152 26.7313 20.5166 26.95 20.925 27.1104L21.1729 28.8313C21.202 28.9917 21.3333 29.1083 21.4937 29.1083H24.1041C24.2645 29.1083 24.4104 28.9917 24.425 28.8313L24.6729 27.1104C25.0666 26.9354 25.4458 26.7313 25.7666 26.4688L27.4 27.125C27.5458 27.1833 27.7208 27.125 27.8083 26.9792L29.1208 24.7188C29.2083 24.5875 29.1645 24.4125 29.0479 24.3104ZM22.7916 24.5438C22.2693 24.5436 21.7684 24.3359 21.3992 23.9664C21.03 23.5969 20.8227 23.0959 20.8229 22.5735C20.8231 22.0512 21.0307 21.5503 21.4002 21.1811C21.7697 20.8119 22.2707 20.6046 22.7931 20.6048C23.3154 20.605 23.8163 20.8127 24.1855 21.1822C24.5547 21.5516 24.762 22.0527 24.7618 22.575C24.7616 23.0973 24.554 23.5982 24.1845 23.9674C23.815 24.3366 23.314 24.5439 22.7916 24.5438Z" fill="#024232"/>
</svg>
