<svg width="30" height="30" viewBox="0 0 30 30" fill="none" xmlns="http://www.w3.org/2000/svg">
<path d="M15 24.75C15.625 24.75 16.1565 24.531 16.5945 24.093C17.0325 23.655 17.251 23.124 17.25 22.5H12.75C12.75 23.125 12.969 23.6565 13.407 24.0945C13.845 24.5325 14.376 24.751 15 24.75ZM7.5 21H22.5V18H21V14.1C21 12.575 20.606 11.181 19.818 9.918C19.03 8.655 17.924 7.849 16.5 7.5V6.75C16.5 6.325 16.356 5.9685 16.068 5.6805C15.78 5.3925 15.424 5.249 15 5.25C14.575 5.25 14.2185 5.394 13.9305 5.682C13.6425 5.97 13.499 6.326 13.5 6.75V7.5C12.075 7.85 10.969 8.6565 10.182 9.9195C9.395 11.1825 9.001 12.576 9 14.1V18H7.5V21ZM15 30C12.925 30 10.975 29.606 9.15 28.818C7.325 28.03 5.7375 26.9615 4.3875 25.6125C3.0375 24.2625 1.969 22.675 1.182 20.85C0.395 19.025 0.001 17.075 0 15C0 12.925 0.394 10.975 1.182 9.15C1.97 7.325 3.0385 5.7375 4.3875 4.3875C5.7375 3.0375 7.325 1.969 9.15 1.182C10.975 0.395 12.925 0.001 15 0C17.075 0 19.025 0.394 20.85 1.182C22.675 1.97 24.2625 3.0385 25.6125 4.3875C26.9625 5.7375 28.0315 7.325 28.8195 9.15C29.6075 10.975 30.001 12.925 30 15C30 17.075 29.606 19.025 28.818 20.85C28.03 22.675 26.9615 24.2625 25.6125 25.6125C24.2625 26.9625 22.675 28.0315 20.85 28.8195C19.025 29.6075 17.075 30.001 15 30Z" fill="#024232"/>
</svg>
