<svg width="22" height="26" viewBox="0 0 22 26" fill="none" xmlns="http://www.w3.org/2000/svg">
<path fill-rule="evenodd" clip-rule="evenodd" d="M20.2558 10.6429C20.7577 10.6429 21.1628 11.0493 21.1628 11.5499C21.1628 17.1033 16.9005 21.6749 11.4887 22.1386L11.4884 25.093C11.4884 25.5937 11.082 26 10.5814 26C10.0807 26 9.67442 25.5937 9.67442 25.093L9.67525 22.1387C4.26296 21.6756 0 17.1037 0 11.5499C0 11.0493 0.406326 10.6429 0.906977 10.6429C1.40884 10.6429 1.81395 11.0493 1.81395 11.5499C1.81395 16.4089 5.7466 20.3633 10.5814 20.3633C15.4162 20.3633 19.3488 16.4089 19.3488 11.5499C19.3488 11.0493 19.7552 10.6429 20.2558 10.6429ZM10.5814 0C13.7897 0 16.4006 2.62056 16.4006 5.84214V11.5113C16.4006 14.7317 13.7897 17.3523 10.5814 17.3523C7.37312 17.3523 4.76223 14.7317 4.76223 11.5113V5.84214C4.76223 2.62056 7.37312 0 10.5814 0ZM10.5814 1.81395C8.37321 1.81395 6.57619 3.62065 6.57619 5.84214V11.5113C6.57619 13.7304 8.37321 15.5383 10.5814 15.5383C12.7896 15.5383 14.5866 13.7304 14.5866 11.5113V5.84214C14.5866 3.62065 12.7896 1.81395 10.5814 1.81395Z" fill="#8D8D8D"/>
</svg>
